<svg id="Glyph" xmlns="http://www.w3.org/2000/svg" xmlns:xlink="http://www.w3.org/1999/xlink" viewBox="0 0 1080 967.53"><defs><style>.cls-1{fill:url(#linear-gradient);}.cls-2{fill:url(#linear-gradient-2);}</style><linearGradient id="linear-gradient" x1="165.85" y1="56.78" x2="878.26" y2="851.98" gradientUnits="userSpaceOnUse"><stop offset="0" stop-color="#552efb"/><stop offset="0.23" stop-color="#583cfc"/><stop offset="0.67" stop-color="#6062fd"/><stop offset="1" stop-color="#6682ff"/></linearGradient><linearGradient id="linear-gradient-2" x1="1018.86" y1="60.67" x2="62.59" y2="923.35" gradientUnits="userSpaceOnUse"><stop offset="0" stop-color="#552efb"/><stop offset="1" stop-color="#6682ff"/></linearGradient></defs><path class="cls-1" d="M940.32,372.5a414.53,414.53,0,0,0-28.27-83.09,421.55,421.55,0,0,0-116.22-149.5C773.64,154,752,171.9,731,193.31A338.63,338.63,0,0,1,844.44,339.53,333.35,333.35,0,0,1,866,422.27a339.15,339.15,0,0,1,2.68,42.65c0,185.9-151.23,337.14-337.14,337.14A335.71,335.71,0,0,1,422,783.81q-15.93,21.27-32.75,40.09-12.06,13.53-24.36,25.57A416.54,416.54,0,0,0,531.5,884c231.08,0,419.1-188,419.1-419.09A419.46,419.46,0,0,0,940.32,372.5ZM246.15,644.3a335.75,335.75,0,0,1-51.82-179.38c0-185.91,151.26-337.15,337.17-337.15A334.78,334.78,0,0,1,657.05,152a488,488,0,0,1,64.74-60.48A416.76,416.76,0,0,0,531.5,45.82c-231.11,0-419.13,188-419.13,419.1a416.26,416.26,0,0,0,65.06,224A422,422,0,0,0,290,807.26c19.42-16.77,38.52-37,57-60.33A338.83,338.83,0,0,1,246.15,644.3Z"/><path class="cls-2" d="M1065.11,169.22c-3.12,72-46,141.59-124.79,203.28a414.53,414.53,0,0,0-28.27-83.09c44-39.68,69.34-82,71.17-123.75a107.44,107.44,0,0,0-.06-11.06c-1.39-24.93-21-45.71-46.68-49.39a180.87,180.87,0,0,0-26.1-1.9c-2,0-4.07,0-6.09.1-36.43,1.26-73,14-108.46,36.5C773.64,154,752,171.9,731,193.31,672.11,253.48,619.44,341,580.39,447.17c105.12-27.58,195.61-65,264.05-107.64A333.35,333.35,0,0,1,866,422.27C780.48,471.57,672.43,511.5,549.75,539,515.33,634.21,471.8,717.58,422,783.81q-15.93,21.27-32.75,40.09-12.06,13.53-24.36,25.57c-64.75,63.48-134.5,96.7-203.56,96.7q-3,0-6.06-.09a214.06,214.06,0,0,1-22.88-1.89c-66.07-9-115.52-63.23-117.63-129-.07-2.11-.1-4.25-.07-6.36.51-68.18,43.66-135,125.27-194.29a415.83,415.83,0,0,0,37.44,74.35C125.33,729.31,97,771.39,96.68,809.5c0,1,0,2,0,3.09.82,25.62,20.49,46.84,46.74,50.4a133,133,0,0,0,14.19,1.16c43.34,1.27,88.6-19.07,132.35-56.89,19.42-16.77,38.52-37,57-60.33,38.83-48.92,75-111.46,105.59-184.3-79.14,22.29-149,49.93-206.42,81.67a334.36,334.36,0,0,1-35-74.23c75.65-41.14,169.33-75.52,275.17-100.9,38.68-123.12,94.47-229,162-307.32,2.87-3.31,5.73-6.59,8.7-9.81a488,488,0,0,1,64.74-60.48c57.05-44,118-67.9,179.67-70a263.17,263.17,0,0,1,46.68,2.55,137.62,137.62,0,0,1,81.13,42.52A133.67,133.67,0,0,1,1065,150C1065.33,156.39,1065.39,162.86,1065.11,169.22Z"/></svg>